<svg id="visual" viewBox="0 0 900 600" width="900" height="600" xmlns="http://www.w3.org/2000/svg" xmlns:xlink="http://www.w3.org/1999/xlink" version="1.1"><path d="M0 436L21.5 432.3C43 428.7 86 421.3 128.8 427.2C171.7 433 214.3 452 257.2 464.3C300 476.7 343 482.3 385.8 489.3C428.7 496.3 471.3 504.7 514.2 489.7C557 474.7 600 436.3 642.8 430C685.7 423.7 728.3 449.3 771.2 454.3C814 459.3 857 443.7 878.5 435.8L900 428L900 601L878.5 601C857 601 814 601 771.2 601C728.3 601 685.7 601 642.8 601C600 601 557 601 514.2 601C471.3 601 428.7 601 385.8 601C343 601 300 601 257.2 601C214.3 601 171.7 601 128.8 601C86 601 43 601 21.5 601L0 601Z" fill="#4269E0" stroke-linecap="round" stroke-linejoin="miter"></path></svg>