<svg width="1440" height="951" viewBox="0 0 1440 951" fill="none" xmlns="http://www.w3.org/2000/svg">
<ellipse cx="732.5" cy="710.5" rx="789.5" ry="240.5" fill="#5585E7"/>
<rect width="1440" height="748" fill="url(#paint0_linear)"/>
<g opacity="0.3">
<path opacity="0.3" d="M192.209 701.196H295.163V488.802H298.096V482.729H291.706V474.96H241.046V463.163H221.701L218.799 455.441H214.027V441.678H212.964H211.886V455.441H203.022V463.163V472.042V474.96H195.665V482.729H189.291V488.802H192.209V701.196Z" fill="url(#paint1_linear)"/>
<path opacity="0.3" d="M214.881 439.759C214.881 438.697 214.025 437.841 212.963 437.841C211.901 437.841 211.045 438.697 211.045 439.759C211.045 440.821 211.901 441.677 212.963 441.677C214.01 441.677 214.881 440.805 214.881 439.759Z" fill="url(#paint2_linear)"/>
<path opacity="0.3" d="M1147.78 713.627V428.089L1021.01 401.768L1034.9 713.627H662.915V537.211H656.081V431.641H638.401V403.369H632.09V361.89H597.286V331.414H594.194V361.89H587.376V323.74H584.284V361.89H562.291V431.641H550.938V537.211H541.187V713.627H442.276V478.781H443.988V476.07H431.811V459.754H433.381V457.138H422.202V447.767H423.201V445.753H418.397V436.889H413.798H413.085V405.256H412.593H411.959H411.325V436.889H409.168V419.257H408.677H408.042H407.408V436.889H402.096V445.753H396.547V447.767H398.291V457.138H387.112V459.754H388.682V476.07H376.52V478.781H378.217V713.627H48.3135V745.657H1394.91V713.627H1147.78Z" fill="white"/>
</g>
<path d="M1368.7 699.57V670.744H1328.17L1312.84 557.261H1310.54V543.625H1302.49V557.261H1300.49V552.156H1294.84V557.261H1283.16V545.369H1279.94V537.108H1256.98V545.369H1253.76V557.261H1250.54V625.427H1230.14V452.468H1223.43V414.54H1221.29V452.468H1216.18V399.857H1214.03V452.468H1209.6V423.99H1207.45V452.468H1167.82V575.226H1123.77V654.745H1082.64L1049.98 594.539C1055.48 591.368 1060.66 587.547 1065.42 583.139L1072.11 590.29C1070.67 591.542 1069.77 593.398 1069.77 595.459C1069.77 599.248 1072.84 602.309 1076.62 602.309C1080.41 602.309 1083.47 599.233 1083.47 595.459C1083.47 591.669 1080.39 588.609 1076.62 588.609C1075.16 588.609 1073.83 589.069 1072.72 589.83L1065.98 582.631C1066.55 582.092 1067.12 581.537 1067.67 580.982C1074.75 573.91 1080.41 565.808 1084.51 557.024L1091.98 560.464C1091.84 561.003 1091.77 561.558 1091.77 562.145C1091.77 565.935 1094.85 568.995 1098.62 568.995C1102.41 568.995 1105.47 565.919 1105.47 562.145C1105.47 558.355 1102.4 555.295 1098.62 555.295C1095.69 555.295 1093.19 557.15 1092.2 559.735L1084.83 556.326C1089.38 546.384 1091.95 535.57 1092.35 524.376L1100.37 524.629C1100.46 528.324 1103.49 531.305 1107.22 531.305C1111.01 531.305 1114.07 528.229 1114.07 524.455C1114.07 520.665 1110.99 517.605 1107.22 517.605C1103.62 517.605 1100.69 520.364 1100.38 523.884L1092.36 523.63C1092.38 522.838 1092.39 522.061 1092.39 521.268C1092.39 511.278 1090.66 501.543 1087.37 492.425L1094.07 489.952C1095.12 492.378 1097.55 494.09 1100.37 494.09C1104.16 494.09 1107.22 491.014 1107.22 487.24C1107.22 483.451 1104.14 480.391 1100.37 480.391C1096.58 480.391 1093.52 483.467 1093.52 487.24C1093.52 487.938 1093.63 488.62 1093.82 489.254L1087.11 491.728C1083.29 481.485 1077.47 472.003 1069.83 463.805L1075.08 458.89C1076.31 460.063 1077.98 460.792 1079.82 460.792C1083.61 460.792 1086.67 457.716 1086.67 453.943C1086.67 450.153 1083.59 447.093 1079.82 447.093C1076.03 447.093 1072.97 450.169 1072.97 453.943C1072.97 455.623 1073.57 457.161 1074.57 458.351L1069.32 463.266C1068.78 462.695 1068.23 462.124 1067.67 461.569C1059.73 453.625 1050.47 447.457 1040.4 443.255L1043.29 436.231C1043.94 436.437 1044.63 436.548 1045.36 436.548C1049.15 436.548 1052.21 433.472 1052.21 429.698C1052.21 425.909 1049.14 422.849 1045.36 422.849C1041.57 422.849 1038.51 425.925 1038.51 429.698C1038.51 432.489 1040.18 434.899 1042.59 435.962L1039.7 442.97C1030.7 439.323 1021.02 437.246 1011.07 436.881L1011.38 427.272C1011.46 427.272 1011.53 427.272 1011.61 427.272C1015.4 427.272 1018.46 424.196 1018.46 420.423C1018.46 416.633 1015.38 413.573 1011.61 413.573C1007.82 413.573 1004.76 416.649 1004.76 420.423C1004.76 423.879 1007.31 426.733 1010.64 427.209L1010.32 436.865C1009.53 436.85 1008.75 436.834 1007.96 436.834C998.366 436.834 989.027 438.419 980.226 441.464L977.467 433.615C979.957 432.584 981.717 430.142 981.717 427.272C981.717 423.483 978.641 420.423 974.867 420.423C971.077 420.423 968.017 423.499 968.017 427.272C968.017 431.062 971.093 434.122 974.867 434.122C975.517 434.122 976.151 434.027 976.754 433.853L979.513 441.702C968.842 445.507 958.979 451.485 950.48 459.381L945.47 454.038C946.595 452.817 947.277 451.184 947.277 449.408C947.277 445.618 944.201 442.558 940.427 442.558C936.638 442.558 933.578 445.634 933.578 449.408C933.578 453.197 936.654 456.258 940.427 456.258C942.156 456.258 943.726 455.623 944.931 454.561L949.925 459.904C949.354 460.444 948.784 460.999 948.229 461.554C941.157 468.625 935.496 476.728 931.389 485.512L925.015 482.579C925.253 481.897 925.38 481.152 925.38 480.391C925.38 476.601 922.304 473.541 918.53 473.541C914.74 473.541 911.68 476.617 911.68 480.391C911.68 484.18 914.756 487.24 918.53 487.24C921.289 487.24 923.652 485.623 924.746 483.276L931.072 486.194C926.522 496.136 923.953 506.95 923.556 518.144L915.391 517.875C915.295 514.18 912.267 511.215 908.541 511.215C904.751 511.215 901.691 514.291 901.691 518.065C901.691 521.855 904.767 524.915 908.541 524.915C912.14 524.915 915.073 522.156 915.375 518.636L923.541 518.905C923.525 519.698 923.509 520.475 923.509 521.268C923.509 531.257 925.237 540.993 928.535 550.11L921.828 552.584C920.782 550.158 918.356 548.445 915.533 548.445C911.744 548.445 908.683 551.521 908.683 555.295C908.683 559.085 911.759 562.145 915.533 562.145C919.323 562.145 922.383 559.069 922.383 555.295C922.383 554.598 922.272 553.916 922.082 553.281L928.789 550.808C932.61 561.051 938.43 570.533 946.072 578.731L940.824 583.646C939.587 582.473 937.922 581.743 936.083 581.743C932.293 581.743 929.233 584.819 929.233 588.593C929.233 592.383 932.309 595.443 936.083 595.443C939.872 595.443 942.933 592.367 942.933 588.593C942.933 586.912 942.33 585.374 941.331 584.185L946.58 579.27C947.119 579.841 947.674 580.411 948.229 580.966C953.588 586.326 959.534 590.861 965.908 594.539L933.245 654.745H906.796V613.931H896.014V536.426H900.2V534.746H807.521V536.426H811.707V575.512H802.621L793.948 620.068V473.969H790.143V421.057H770.957V400.919H760.714V384.001H757.114V355H756.179V384.001H752.579V400.919H742.336V421.057H723.341V473.969H719.392V570.026H689.932V654.761H592.194V490.919H600.043V488.335H592.194V483.72H582.237V476.141H500.815V483.72H490.857V488.335H483.009V490.919H490.857V592.906H477.538V573.768H395.371V597.14H377.454V640.649H348.453V498.435H338.781V488.763H331.122V463.187H329.505V488.763H325.874V456.733H324.257V488.763H319.801V498.435H317.407V640.649H257.375V557.246H260.198V551.601H241.662V536.284H232.798V551.601H224.743V536.284H216.688V551.601H201.007V536.284H153.026V551.601H141.815V557.246H148.19V588.672H130.462V659.581H106.123V640.649H79.0409V681.938H55V699.555V750.057H1411.86V699.57H1368.7ZM1048.85 592.541L1037.53 571.69C1041.16 569.55 1044.54 567.029 1047.6 564.19L1063.82 581.474C1059.21 585.755 1054.2 589.449 1048.85 592.541ZM1006.5 525.628C1006.77 525.723 1007.07 525.771 1007.36 525.819L1005.64 578.572C998.873 578.302 992.42 576.875 986.442 574.465L1006.5 525.628ZM985.744 574.164C983.81 573.355 981.939 572.436 980.115 571.421L1005.3 525.026C1005.45 525.137 1005.63 525.232 1005.8 525.327L985.744 574.164ZM1008.12 525.834C1008.43 525.819 1008.75 525.771 1009.05 525.692L1026.61 575.48C1020.74 577.51 1014.44 578.62 1007.9 578.62C1007.4 578.62 1006.91 578.62 1006.4 578.604L1008.12 525.834ZM1009.78 525.438C1010.04 525.327 1010.27 525.184 1010.5 525.042L1035.68 571.437C1033.01 572.911 1030.24 574.18 1027.34 575.226L1009.78 525.438ZM1014.02 528.324L1046.84 563.35C1043.84 566.125 1040.54 568.583 1036.99 570.676L1014.02 528.324ZM1012.57 525.676L1011.62 523.932C1011.72 523.789 1011.81 523.646 1011.89 523.504L1059.81 545.623C1056.75 552.108 1052.51 557.943 1047.38 562.827L1012.57 525.676ZM1012.22 522.806C1012.35 522.473 1012.43 522.124 1012.48 521.759L1065.23 523.472C1064.93 531.099 1063.15 538.345 1060.16 544.925L1012.22 522.806ZM1012.49 520.998C1012.48 520.649 1012.41 520.316 1012.34 519.999L1061.87 501.765C1064.07 507.854 1065.28 514.402 1065.28 521.236C1065.28 521.728 1065.28 522.219 1065.26 522.727L1012.49 520.998ZM1012.07 519.286C1011.91 518.953 1011.72 518.652 1011.49 518.366L1049.99 482.293C1054.99 487.684 1058.95 494.043 1061.6 501.051L1012.07 519.286ZM1010.99 517.811C1010.69 517.542 1010.35 517.304 1009.99 517.129L1030.05 468.292C1037.44 471.4 1044.05 475.998 1049.49 481.738L1010.99 517.811ZM1009.29 516.844C1009.02 516.749 1008.72 516.701 1008.43 516.654L1010.15 463.9C1016.92 464.154 1023.37 465.597 1029.35 468.007L1009.29 516.844ZM1007.66 516.638C1007.34 516.654 1007.02 516.701 1006.72 516.781L989.169 466.992C995.036 464.963 1001.33 463.853 1007.88 463.853C1008.37 463.853 1008.86 463.853 1009.37 463.868L1007.66 516.638ZM1006.01 517.034C1005.66 517.193 1005.33 517.399 1005.03 517.621L968.953 479.122C974.534 473.953 981.162 469.878 988.456 467.246L1006.01 517.034ZM1004.47 518.144C1004.25 518.398 1004.04 518.667 1003.88 518.969L955.966 496.849C959.027 490.364 963.26 484.529 968.398 479.645L1004.47 518.144ZM1003.57 519.65C1003.44 519.983 1003.36 520.332 1003.31 520.697L950.56 518.985C950.861 511.358 952.637 504.111 955.634 497.531L1003.57 519.65ZM1003.28 521.458C1003.3 521.807 1003.36 522.14 1003.44 522.457L953.905 540.692C951.701 534.603 950.496 528.054 950.496 521.22C950.496 520.729 950.496 520.237 950.512 519.73L1003.28 521.458ZM1003.71 523.171C1003.84 523.44 1003.98 523.694 1004.15 523.916L1003.84 524.487L965.781 560.147C960.787 554.756 956.823 548.398 954.175 541.389L1003.71 523.171ZM1002.69 526.627L978.799 570.676C974.185 567.948 969.983 564.603 966.305 560.734L1002.69 526.627ZM979.576 572.436C981.431 573.466 983.35 574.402 985.316 575.226L976.31 597.155C973.567 596.014 970.887 594.714 968.271 593.287L979.576 572.436ZM986.014 575.512C992.103 577.97 998.715 579.444 1005.61 579.714L1004.84 603.371C995.147 603.022 985.76 600.993 976.992 597.441L986.014 575.512ZM1006.37 579.745C1006.88 579.761 1007.39 579.761 1007.9 579.761C1014.59 579.761 1021.01 578.635 1026.99 576.558L1034.87 598.916C1026.3 601.881 1017.22 603.419 1007.9 603.419C1007.13 603.419 1006.37 603.403 1005.61 603.387L1006.37 579.745ZM1027.7 576.305C1030.65 575.242 1033.49 573.942 1036.21 572.436L1047.52 593.287C1043.68 595.395 1039.7 597.203 1035.58 598.662L1027.7 576.305ZM1066.01 579.349C1065.47 579.888 1064.91 580.427 1064.36 580.95L1048.15 563.667C1053.4 558.688 1057.73 552.742 1060.86 546.114L1082.39 556.056C1078.39 564.603 1072.89 572.483 1066.01 579.349ZM1082.72 555.359L1061.19 545.417C1064.25 538.694 1066.07 531.305 1066.37 523.519L1090.03 524.281C1089.63 535.174 1087.13 545.686 1082.72 555.359ZM1090.08 521.236C1090.08 521.997 1090.06 522.758 1090.05 523.519L1066.39 522.758C1066.4 522.251 1066.4 521.744 1066.4 521.236C1066.4 514.259 1065.18 507.584 1062.93 501.368L1085.18 493.171C1088.41 502.05 1090.08 511.516 1090.08 521.236ZM1068.13 465.311C1075.55 473.287 1081.21 482.499 1084.94 492.457L1062.69 500.655C1060 493.504 1055.94 487.019 1050.85 481.516L1068.13 465.311ZM1066.01 463.107C1066.55 463.646 1067.09 464.201 1067.61 464.756L1050.33 480.961C1044.78 475.111 1038.02 470.417 1030.49 467.246L1039.5 445.317C1049.28 449.376 1058.29 455.385 1066.01 463.107ZM1010.94 439.101C1020.63 439.45 1030.01 441.48 1038.78 445.015L1029.78 466.945C1023.69 464.487 1017.08 463.012 1010.18 462.743L1010.94 439.101ZM1007.9 439.038C1008.66 439.038 1009.42 439.054 1010.18 439.069L1009.42 462.727C1008.91 462.711 1008.4 462.711 1007.9 462.711C1001.2 462.711 994.782 463.837 988.805 465.914L980.924 443.557C989.47 440.592 998.572 439.038 1007.9 439.038ZM980.195 443.795L988.075 466.152C980.623 468.847 973.868 473.002 968.176 478.282L951.971 460.983C960.232 453.308 969.825 447.505 980.195 443.795ZM949.767 463.107C950.306 462.568 950.861 462.029 951.416 461.506L967.621 478.789C962.372 483.768 958.044 489.714 954.92 496.342L933.387 486.4C937.399 477.869 942.901 469.989 949.767 463.107ZM933.07 487.114L954.603 497.055C951.543 503.778 949.719 511.167 949.418 518.953L925.76 518.176C926.141 507.299 928.646 496.786 933.07 487.114ZM925.697 521.236C925.697 520.475 925.713 519.714 925.729 518.953L949.386 519.73C949.37 520.237 949.37 520.745 949.37 521.252C949.37 528.229 950.591 534.904 952.843 541.12L930.597 549.317C927.378 540.422 925.697 530.956 925.697 521.236ZM947.658 577.161C940.237 569.185 934.577 559.973 930.85 550.015L953.096 541.817C955.792 548.969 959.851 555.454 964.941 560.956L947.658 577.161ZM949.767 579.349C949.228 578.81 948.688 578.255 948.165 577.7L965.448 561.495C969.206 565.443 973.503 568.884 978.229 571.659L966.907 592.51C960.739 588.958 954.968 584.55 949.767 579.349ZM967.177 595.3C969.856 596.775 972.615 598.107 975.438 599.28L972.552 606.304C971.902 606.098 971.204 605.987 970.475 605.987C966.685 605.987 963.625 609.063 963.625 612.837C963.625 616.627 966.701 619.687 970.475 619.687C974.264 619.687 977.325 616.611 977.325 612.837C977.325 610.047 975.66 607.636 973.25 606.574L976.136 599.566C985.142 603.213 994.814 605.29 1004.77 605.654L1004.53 612.837C1000.82 612.917 997.843 615.961 997.843 619.687C997.843 623.477 1000.92 626.537 1004.69 626.537C1008.48 626.537 1011.54 623.461 1011.54 619.687C1011.54 616.104 1008.8 613.17 1005.3 612.853L1005.53 605.67C1006.33 605.686 1007.1 605.702 1007.9 605.702C1017.49 605.702 1026.83 604.116 1035.63 601.072L1038.09 608.065C1035.75 609.159 1034.14 611.521 1034.14 614.28C1034.14 618.07 1037.21 621.13 1040.99 621.13C1044.78 621.13 1047.84 618.054 1047.84 614.28C1047.84 610.49 1044.76 607.43 1040.99 607.43C1040.21 607.43 1039.48 607.557 1038.78 607.795L1036.33 600.834C1040.56 599.328 1044.65 597.473 1048.6 595.3L1080.87 654.761H934.909L967.177 595.3Z" fill="#88B0FF" fill-opacity="0.46"/>
<path d="M1446.08 721.961L1435.72 655.207H1414.52V599.805H1417.14V594.795H1406.84V573.214H1405.59V594.795H1398.48V577.115H1397.21V594.795H1354.33V599.805H1357.24V712.209H1308.28V661.85H1280.38V538.125H1282.93V532.052H1277.36V524.282H1270.95V521.365V512.485V504.779H1263.21V491H1262.29H1261.37V504.779H1257.18L1254.66 512.485H1237.79V524.282H1193.61V532.052H1188.04V538.125H1190.59V618.626H1153.63V697.733L1112.61 680.243V603.468H1119.23V597.823H1107.58V582.506H1057.73V597.823H1041.46V582.506H1033.09V597.823H1024.7V582.506H1015.5V597.823H996.255V603.468H999.187V709.879H980.489V708.753H977.096V678.436H980.489V675.994H977.096V645.677H980.489V643.251H977.096V612.918H980.489V610.492H977.096V580.159H980.489V577.733H977.096V547.416H980.489V544.974H977.096V513.595H982.894V511.153H985.843V504.509H930.788V497.105H932.567V494.964H902.585V497.105H904.381V504.509H890.741V511.153H893.69V513.595H899.488V544.974H896.095V547.416H899.488V577.733H896.095V580.159H899.488V610.492H896.095V612.918H899.488V643.251H896.095V645.677H899.488V675.994H896.095V678.436H899.488V708.753H896.095V711.195H899.488V735.962H880.692V640.222H805.061V709.879H792.788V492.871H783.711V498.468L766.941 502.401V498.785H757.864V504.541L741.094 508.489V504.335H732.017V510.63L715.247 514.578V511.153H706.17V516.719L689.4 520.667V517.702H680.323V730.809H667.539V617.199H620.21V687.062H571.679V627.474H565.699V607.923H569.241V605.957H553.541V599.805H551.861V605.957H546.853V574.372H545.584V605.957H539.044V607.923H542.899V627.474H510.874V672.934H479.69L463.414 730.809H430.73V541.835H387.47V535.064H389.941V532.686H357.175V535.064H359.745V541.835V552.728V682.146H339.35V633.246H346.599V628.822H295.283V599.282H285.482V593.209H263.637V599.282H245.846V704.757H187.513V626.523H138.388V688.314H95.7543V727.844H65.0144V678.15H24.6045V720.518H-12V750.518H24.6045H36.9762H57.173H65.0144H95.7543H138.388H152.72H160.381H187.513H245.846H263.637H285.482H295.283H333.568H339.35H359.745H393.961H410.797H430.73H510.874H529.374H560.608H571.679H621.034H634.295H680.323H684.853H689.4H706.17H715.247H732.017H739.595H741.094H757.864H766.941H781.356H783.711H788.242H792.788H805.061H867.579H876.508H880.692H899.488H932.567H962.863H977.096H999.187H1054.03H1112.02H1112.61H1153.63H1176.56H1190.59H1199.46H1268.09H1280.38H1295.09H1308.28H1357.24H1393.67H1401.11H1414.52H1496V721.961H1446.08Z" fill="#5585E7"/>
<defs>
<linearGradient id="paint0_linear" x1="720" y1="0" x2="720" y2="914.353" gradientUnits="userSpaceOnUse">
<stop stop-color="#1C5DDC"/>
<stop offset="0.855737" stop-color="#316BDC"/>
</linearGradient>
<linearGradient id="paint1_linear" x1="243.689" y1="701.189" x2="243.689" y2="441.672" gradientUnits="userSpaceOnUse">
<stop stop-color="#403E40"/>
<stop offset="0.1275" stop-color="#4E4D4E"/>
<stop offset="0.3124" stop-color="#5A5A5A"/>
<stop offset="0.5479" stop-color="#626262"/>
<stop offset="1" stop-color="#646464"/>
</linearGradient>
<linearGradient id="paint2_linear" x1="212.958" y1="441.671" x2="212.958" y2="437.839" gradientUnits="userSpaceOnUse">
<stop stop-color="#403E40"/>
<stop offset="0.1275" stop-color="#4E4D4E"/>
<stop offset="0.3124" stop-color="#5A5A5A"/>
<stop offset="0.5479" stop-color="#626262"/>
<stop offset="1" stop-color="#646464"/>
</linearGradient>
</defs>
</svg>
